# xmcd
#
# Track frame offsets:
#	150
#	19948
#	36483
#	54836
#	70451
#	87179
#	103582
#	118491
#	130782
#	144620
#	160499
#	179473
#	194177
#	205910
#	219861
#	237404
#	254480
#	266994
#	277661
#	291516
#
# Disc length: 4140 seconds
#
# Revision: 1
# Processed by: cddbd v1.5.2PL0 Copyright (c) Steve Scherf et al.
# Submitted via: EZCDAudioConverter 8.2.2.1
#
DISCID=46102a14
DTITLE=Bezerra da Silva - As 20 Mais
DYEAR=1900
DGENRE=
TTITLE0=Ensimmäinen
TTITLE1=Pöytä täyteen
TTITLE2=Nostalgiaa
TTITLE3=Täyttä kultaa
TTITLE4=Meidän laulu
TTITLE5=Mies ja nainen
TTITLE6=Näin se kesäloma toimii
TTITLE7=Minä rakastan sua
TTITLE8=Kirkkohäät
TTITLE9=Elämänsuuruinen
TTITLE10=Taivas aukeaa
TTITLE11=Idän pikajuna
TTITLE12=Sokkotreffit
TTITLE13=Kesätuulen soittoon
TTITLE14=Kun aika täyttyy kohdallain
TTITLE15=Pikkuinen
TTITLE16=Mä joka päivä töitä teen
TTITLE17=Kissankultaa
TTITLE18=Kaiken takana on nainen
TTITLE19=Täydellinen yö
EXTD=
EXTT0=
EXTT1=
EXTT2=
EXTT3=
EXTT4=
EXTT5=
EXTT6=
EXTT7=
EXTT8=
EXTT9=
EXTT10=
EXTT11=
EXTT12=
EXTT13=
EXTT14=
EXTT15=
EXTT16=
EXTT17=
EXTT18=
EXTT19=
PLAYORDER=
